<mxfile host="Electron" modified="2023-11-01T20:23:01.657Z" agent="Mozilla/5.0 (X11; Linux x86_64) AppleWebKit/537.36 (KHTML, like Gecko) draw.io/22.0.3 Chrome/114.0.5735.289 Electron/25.8.4 Safari/537.36" etag="yJV2lCfrjtpSUDVIiQPZ" version="22.0.3" type="device">
  <diagram name="Page-1" id="KevvscKim2_j9J4W8ezq">
    <mxGraphModel dx="629" dy="426" grid="1" gridSize="10" guides="1" tooltips="1" connect="1" arrows="1" fold="1" page="1" pageScale="1" pageWidth="1100" pageHeight="850" math="0" shadow="0">
      <root>
        <mxCell id="0" />
        <mxCell id="1" parent="0" />
        <mxCell id="yW_aQWoAsa4XJ9_pENxh-1" value="AWS Cloud" style="points=[[0,0],[0.25,0],[0.5,0],[0.75,0],[1,0],[1,0.25],[1,0.5],[1,0.75],[1,1],[0.75,1],[0.5,1],[0.25,1],[0,1],[0,0.75],[0,0.5],[0,0.25]];outlineConnect=0;gradientColor=none;html=1;whiteSpace=wrap;fontSize=12;fontStyle=0;container=1;pointerEvents=0;collapsible=0;recursiveResize=0;shape=mxgraph.aws4.group;grIcon=mxgraph.aws4.group_aws_cloud_alt;strokeColor=#232F3E;fillColor=none;verticalAlign=top;align=left;spacingLeft=30;fontColor=#232F3E;dashed=0;" parent="1" vertex="1">
          <mxGeometry x="430" y="80" width="529" height="300" as="geometry" />
        </mxCell>
        <mxCell id="yW_aQWoAsa4XJ9_pENxh-8" value="IAM" style="outlineConnect=0;dashed=0;verticalLabelPosition=bottom;verticalAlign=top;align=center;html=1;shape=mxgraph.aws3.iam;fillColor=#759C3E;gradientColor=none;" parent="yW_aQWoAsa4XJ9_pENxh-1" vertex="1">
          <mxGeometry x="240" y="40" width="42" height="81" as="geometry" />
        </mxCell>
        <mxCell id="yW_aQWoAsa4XJ9_pENxh-15" value="CodeBuild" style="sketch=0;points=[[0,0,0],[0.25,0,0],[0.5,0,0],[0.75,0,0],[1,0,0],[0,1,0],[0.25,1,0],[0.5,1,0],[0.75,1,0],[1,1,0],[0,0.25,0],[0,0.5,0],[0,0.75,0],[1,0.25,0],[1,0.5,0],[1,0.75,0]];outlineConnect=0;fontColor=#232F3E;fillColor=#C925D1;strokeColor=#ffffff;dashed=0;verticalLabelPosition=bottom;verticalAlign=top;align=center;html=1;fontSize=12;fontStyle=0;aspect=fixed;shape=mxgraph.aws4.resourceIcon;resIcon=mxgraph.aws4.codebuild;" parent="yW_aQWoAsa4XJ9_pENxh-1" vertex="1">
          <mxGeometry x="52" y="41" width="78" height="78" as="geometry" />
        </mxCell>
        <mxCell id="yW_aQWoAsa4XJ9_pENxh-16" value="Lambda" style="sketch=0;points=[[0,0,0],[0.25,0,0],[0.5,0,0],[0.75,0,0],[1,0,0],[0,1,0],[0.25,1,0],[0.5,1,0],[0.75,1,0],[1,1,0],[0,0.25,0],[0,0.5,0],[0,0.75,0],[1,0.25,0],[1,0.5,0],[1,0.75,0]];outlineConnect=0;fontColor=#232F3E;fillColor=#ED7100;strokeColor=#ffffff;dashed=0;verticalLabelPosition=bottom;verticalAlign=top;align=center;html=1;fontSize=12;fontStyle=0;aspect=fixed;shape=mxgraph.aws4.resourceIcon;resIcon=mxgraph.aws4.lambda;" parent="yW_aQWoAsa4XJ9_pENxh-1" vertex="1">
          <mxGeometry x="204" y="187" width="78" height="78" as="geometry" />
        </mxCell>
        <mxCell id="yW_aQWoAsa4XJ9_pENxh-19" value="" style="edgeStyle=orthogonalEdgeStyle;html=1;endArrow=none;elbow=vertical;startArrow=block;startFill=1;strokeColor=#545B64;rounded=0;" parent="yW_aQWoAsa4XJ9_pENxh-1" edge="1">
          <mxGeometry width="100" relative="1" as="geometry">
            <mxPoint x="140" y="80" as="sourcePoint" />
            <mxPoint x="230" y="80" as="targetPoint" />
          </mxGeometry>
        </mxCell>
        <mxCell id="CPhPs6YMF01N5RDLmhh4-1" value="" style="sketch=0;points=[[0,0,0],[0.25,0,0],[0.5,0,0],[0.75,0,0],[1,0,0],[0,1,0],[0.25,1,0],[0.5,1,0],[0.75,1,0],[1,1,0],[0,0.25,0],[0,0.5,0],[0,0.75,0],[1,0.25,0],[1,0.5,0],[1,0.75,0]];outlineConnect=0;fontColor=#232F3E;fillColor=#8C4FFF;strokeColor=#ffffff;dashed=0;verticalLabelPosition=bottom;verticalAlign=top;align=center;html=1;fontSize=12;fontStyle=0;aspect=fixed;shape=mxgraph.aws4.resourceIcon;resIcon=mxgraph.aws4.api_gateway;" vertex="1" parent="yW_aQWoAsa4XJ9_pENxh-1">
          <mxGeometry x="360" y="187" width="78" height="78" as="geometry" />
        </mxCell>
        <mxCell id="CPhPs6YMF01N5RDLmhh4-9" value="" style="endArrow=classic;startArrow=classic;html=1;rounded=0;entryX=0;entryY=0.5;entryDx=0;entryDy=0;entryPerimeter=0;" edge="1" parent="yW_aQWoAsa4XJ9_pENxh-1">
          <mxGeometry width="50" height="50" relative="1" as="geometry">
            <mxPoint x="290" y="226" as="sourcePoint" />
            <mxPoint x="350" y="226" as="targetPoint" />
          </mxGeometry>
        </mxCell>
        <mxCell id="yW_aQWoAsa4XJ9_pENxh-9" value="git" style="dashed=0;outlineConnect=0;html=1;align=center;labelPosition=center;verticalLabelPosition=bottom;verticalAlign=top;shape=mxgraph.weblogos.github" parent="1" vertex="1">
          <mxGeometry x="320" y="268.5" width="75" height="75" as="geometry" />
        </mxCell>
        <mxCell id="yW_aQWoAsa4XJ9_pENxh-10" value="User" style="sketch=0;outlineConnect=0;fontColor=#232F3E;gradientColor=none;fillColor=#232F3D;strokeColor=none;dashed=0;verticalLabelPosition=bottom;verticalAlign=top;align=center;html=1;fontSize=12;fontStyle=0;aspect=fixed;pointerEvents=1;shape=mxgraph.aws4.user;" parent="1" vertex="1">
          <mxGeometry x="30" y="270" width="78" height="78" as="geometry" />
        </mxCell>
        <mxCell id="yW_aQWoAsa4XJ9_pENxh-11" value="Python" style="outlineConnect=0;dashed=0;verticalLabelPosition=bottom;verticalAlign=top;align=center;html=1;shape=mxgraph.aws3.android;fillColor=#FFD44F;gradientColor=none;" parent="1" vertex="1">
          <mxGeometry x="170" y="264" width="73.5" height="84" as="geometry" />
        </mxCell>
        <mxCell id="yW_aQWoAsa4XJ9_pENxh-13" value="" style="edgeStyle=orthogonalEdgeStyle;html=1;endArrow=block;elbow=vertical;startArrow=none;endFill=1;strokeColor=#545B64;rounded=0;" parent="1" source="yW_aQWoAsa4XJ9_pENxh-10" edge="1">
          <mxGeometry width="100" relative="1" as="geometry">
            <mxPoint x="460" y="330" as="sourcePoint" />
            <mxPoint x="160" y="309" as="targetPoint" />
          </mxGeometry>
        </mxCell>
        <mxCell id="yW_aQWoAsa4XJ9_pENxh-14" value="" style="edgeStyle=orthogonalEdgeStyle;html=1;endArrow=block;elbow=vertical;startArrow=none;endFill=1;strokeColor=#545B64;rounded=0;" parent="1" edge="1">
          <mxGeometry width="100" relative="1" as="geometry">
            <mxPoint x="254" y="308.5" as="sourcePoint" />
            <mxPoint x="310" y="308.5" as="targetPoint" />
          </mxGeometry>
        </mxCell>
        <mxCell id="yW_aQWoAsa4XJ9_pENxh-17" value="" style="edgeStyle=orthogonalEdgeStyle;html=1;endArrow=block;elbow=vertical;startArrow=none;endFill=1;strokeColor=#545B64;rounded=0;" parent="1" edge="1">
          <mxGeometry width="100" relative="1" as="geometry">
            <mxPoint x="410" y="306" as="sourcePoint" />
            <mxPoint x="620" y="306" as="targetPoint" />
          </mxGeometry>
        </mxCell>
        <mxCell id="yW_aQWoAsa4XJ9_pENxh-20" value="" style="edgeStyle=orthogonalEdgeStyle;html=1;endArrow=none;elbow=vertical;startArrow=block;startFill=1;strokeColor=#545B64;rounded=0;" parent="1" edge="1">
          <mxGeometry width="100" relative="1" as="geometry">
            <mxPoint x="521" y="300" as="sourcePoint" />
            <mxPoint x="521" y="230" as="targetPoint" />
          </mxGeometry>
        </mxCell>
        <mxCell id="CPhPs6YMF01N5RDLmhh4-5" value="" style="endArrow=classic;startArrow=classic;html=1;rounded=0;" edge="1" parent="1">
          <mxGeometry width="50" height="50" relative="1" as="geometry">
            <mxPoint x="830" y="458" as="sourcePoint" />
            <mxPoint x="829.2708333333333" y="353" as="targetPoint" />
          </mxGeometry>
        </mxCell>
        <mxCell id="CPhPs6YMF01N5RDLmhh4-6" value="User" style="sketch=0;outlineConnect=0;fontColor=#232F3E;gradientColor=none;fillColor=#232F3D;strokeColor=none;dashed=0;verticalLabelPosition=bottom;verticalAlign=top;align=center;html=1;fontSize=12;fontStyle=0;aspect=fixed;pointerEvents=1;shape=mxgraph.aws4.user;" vertex="1" parent="1">
          <mxGeometry x="791" y="630" width="78" height="78" as="geometry" />
        </mxCell>
        <mxCell id="CPhPs6YMF01N5RDLmhh4-7" value="Postman" style="shape=image;aspect=fixed;image=data:image/svg+xml,PD94bWwgdmVyc2lvbj0iMS4wIiBlbmNvZGluZz0iVVRGLTgiPz4KPCEtLSBVcGxvYWRlZCB0bzogU1ZHIFJlcG8sIHd3dy5zdmdyZXBvLmNvbSwgR2VuZXJhdG9yOiBTVkcgUmVwbyBNaXhlciBUb29scyAtLT4KPHN2ZyB3aWR0aD0iODAwcHgiIGhlaWdodD0iODAwcHgiIHZpZXdCb3g9IjAgMCAyNTYgMjU2IiB2ZXJzaW9uPSIxLjEiIHhtbG5zPSJodHRwOi8vd3d3LnczLm9yZy8yMDAwL3N2ZyIgeG1sbnM6eGxpbms9Imh0dHA6Ly93d3cudzMub3JnLzE5OTkveGxpbmsiIHByZXNlcnZlQXNwZWN0UmF0aW89InhNaWRZTWlkIj4KICAgIDxnPgogICAgICAgIDxwYXRoIGQ9Ik0yNTQuOTUzMTE4LDE0NC4yNTMwNzEgQzI2My45MTE1MDQsNzQuMTIxNzEwOCAyMTQuMzg0NDMsMTAuMDA1MjY2OSAxNDQuMzgxMDQ4LDEuMDQ2ODgxNTggQzc0LjM3NzY2NDcsLTcuOTExNTAzOCAxMC4wMDUyNjY5LDQxLjYxNTU2OTYgMS4wNDY4ODE1OCwxMTEuNjE4OTUyIEMtNy45MTE1MDM4LDE4MS42MjIzMzUgNDEuNjE1NTY5NiwyNDUuODY2NzU2IDExMS42MTg5NTIsMjU0Ljk1MzExOCBDMTgxLjc1MDMxMiwyNjMuOTExNTA0IDI0NS44NjY3NTYsMjE0LjM4NDQzIDI1NC45NTMxMTgsMTQ0LjI1MzA3MSBaIiBmaWxsPSIjRkY2QzM3Ij4KDTwvcGF0aD4KICAgICAgICA8ZyB0cmFuc2Zvcm09InRyYW5zbGF0ZSg1MC4xODEyMjUsIDQ1LjE5ODkyNCkiPgogICAgICAgICAgICA8cGF0aCBkPSJNMTI0LjAxODQ0OCwzNi45ODUzMzM5IEw3MC4wMTIxODIsOTAuOTkxNiBMNTQuNzgyOTI2OSw3NS43NjIzNDQ5IEMxMDcuODkzMzU0LDIyLjY1MTkxNzMgMTEzLjE0MDQwOSwyNy4yNTkwODY5IDEyNC4wMTg0NDgsMzYuOTg1MzMzOSBMMTI0LjAxODQ0OCwzNi45ODUzMzM5IFoiIGZpbGw9IiNGRkZGRkYiPgoNPC9wYXRoPgogICAgICAgICAgICA8cGF0aCBkPSJNNzAuMDEyMTgyLDkyLjI3MTM2OTMgQzY5LjYyODI1MTIsOTIuMjcxMzY5MyA2OS4zNzIyOTc0LDkyLjE0MzM5MjQgNjkuMTE2MzQzNSw5MS44ODc0Mzg1IEw1My43NTkxMTE0LDc2LjY1ODE4MzQgQzUzLjI0NzIwMzcsNzYuMTQ2Mjc1NyA1My4yNDcyMDM3LDc1LjM3ODQxNDEgNTMuNzU5MTExNCw3NC44NjY1MDYzIEMxMDcuNzY1Mzc4LDIwLjg2MDI0MDIgMTEzLjM5NjM2MywyNS45NzkzMTc2IDEyNC43ODYzMSwzNi4yMTc0NzIzIEMxMjUuMDQyMjY0LDM2LjQ3MzQyNjIgMTI1LjE3MDI0MSwzNi43MjkzOCAxMjUuMTcwMjQxLDM3LjExMzMxMDggQzEyNS4xNzAyNDEsMzcuNDk3MjQxNiAxMjUuMDQyMjY0LDM3Ljc1MzE5NTUgMTI0Ljc4NjMxLDM4LjAwOTE0OTQgTDcwLjc4MDA0MzYsOTEuODg3NDM4NSBDNzAuNjUyMDY2Nyw5Mi4xNDMzOTI0IDcwLjI2ODEzNTksOTIuMjcxMzY5MyA3MC4wMTIxODIsOTIuMjcxMzY5MyBaIE01Ni41NzQ2MDQsNzUuNzYyMzQ0OSBMNzAuMDEyMTgyLDg5LjE5OTkyMjkgTDEyMi4wOTg3OTQsMzcuMTEzMzEwOCBDMTEyLjYyODUwMSwyOC42NjY4MzMyIDEwNi4yMjk2NTQsMjYuMTA3Mjk0NSA1Ni41NzQ2MDQsNzUuNzYyMzQ0OSBMNTYuNTc0NjA0LDc1Ljc2MjM0NDkgWiIgZmlsbD0iI0ZGNkMzNyI+Cg08L3BhdGg+CiAgICAgICAgICAgIDxwYXRoIGQ9Ik04NS40OTczOTEsMTA2LjQ3NjgwOSBMNzAuNzgwMDQzNiw5MS43NTk0NjE2IEwxMjQuNzg2MzEsMzcuNzUzMTk1NSBDMTM5LjI0NzcwMyw1Mi4zNDI1NjYgMTE3LjYxOTYwMSw3Ni4wMTgyOTg3IDg1LjQ5NzM5MSwxMDYuNDc2ODA5IFoiIGZpbGw9IiNGRkZGRkYiPgoNPC9wYXRoPgogICAgICAgICAgICA8cGF0aCBkPSJNODUuNDk3MzkxLDEwNy43NTY1NzggQzg1LjExMzQ2MDIsMTA3Ljc1NjU3OCA4NC44NTc1MDY0LDEwNy42Mjg2MDEgODQuNjAxNTUyNSwxMDcuMzcyNjQ4IEw2OS44ODQyMDUxLDkyLjY1NTMwMDEgQzY5LjYyODI1MTIsOTIuMzk5MzQ2MyA2OS42MjgyNTEyLDkyLjE0MzM5MjQgNjkuNjI4MjUxMiw5MS43NTk0NjE2IEM2OS42MjgyNTEyLDkxLjM3NTUzMDggNjkuNzU2MjI4Miw5MS4xMTk1NzY5IDcwLjAxMjE4Miw5MC44NjM2MjMxIEwxMjQuMDE4NDQ4LDM2Ljg1NzM1NyBDMTI0LjUzMDM1NiwzNi4zNDU0NDkyIDEyNS4yOTgyMTcsMzYuMzQ1NDQ5MiAxMjUuODEwMTI1LDM2Ljg1NzM1NyBDMTI5LjEzNzUyNSwzOS45Mjg4MDM0IDEzMC45MjkyMDMsNDQuMjgwMDE5MSAxMzAuODAxMjI2LDQ4Ljc1OTIxMTggQzEzMC41NDUyNzIsNjIuOTY0NjUxNSAxMTQuNDIwMTc4LDgxLjAwOTM5OTIgODYuNTIxMjA2NSwxMDcuMzcyNjQ4IEM4Ni4xMzcyNzU3LDEwNy42Mjg2MDEgODUuNzUzMzQ0OSwxMDcuNzU2NTc4IDg1LjQ5NzM5MSwxMDcuNzU2NTc4IEw4NS40OTczOTEsMTA3Ljc1NjU3OCBaIE03Mi41NzE3MjA3LDkxLjc1OTQ2MTYgQzgwLjc2MjI0NDUsMTAwLjA3Nzk2MiA4NC4yMTc2MjE3LDEwMy40MDUzNjMgODUuNDk3MzkxLDEwNC42ODUxMzIgQzEwNi45OTc1MTYsODQuMjA4ODIyNSAxMjcuODU3NzU2LDYzLjIyMDYwNTMgMTI3Ljk4NTczMyw0OC43NTkyMTE4IEMxMjguMTEzNzEsNDUuNDMxODExNSAxMjYuODMzOTQxLDQyLjEwNDQxMTMgMTI0LjY1ODMzMywzOS41NDQ4NzI2IEw3Mi41NzE3MjA3LDkxLjc1OTQ2MTYgWiIgZmlsbD0iI0ZGNkMzNyI+Cg08L3BhdGg+CiAgICAgICAgICAgIDxwYXRoIGQ9Ik01NS4wMzg4ODA4LDc2LjE0NjI3NTcgTDY1LjkxNjkyMDEsODcuMDI0MzE1IEM2Ni4xNzI4NzQsODcuMjgwMjY4OSA2Ni4xNzI4NzQsODcuNTM2MjIyOCA2NS45MTY5MjAxLDg3Ljc5MjE3NjcgQzY1Ljc4ODk0MzIsODcuOTIwMTUzNiA2NS43ODg5NDMyLDg3LjkyMDE1MzYgNjUuNjYwOTY2Myw4Ny45MjAxNTM2IEw0My4xMzcwMjU5LDkyLjc4MzI3NzEgQzQxLjk4NTIzMzUsOTIuOTExMjU0IDQwLjk2MTQxOCw5Mi4xNDMzOTI0IDQwLjcwNTQ2NDIsOTAuOTkxNiBDNDAuNTc3NDg3Miw5MC4zNTE3MTUzIDQwLjgzMzQ0MTEsODkuNzExODMwNyA0MS4yMTczNzE5LDg5LjMyNzg5OTkgTDU0LjI3MTAxOTIsNzYuMjc0MjUyNiBDNTQuNTI2OTczLDc2LjAxODI5ODcgNTQuOTEwOTAzOCw3NS44OTAzMjE4IDU1LjAzODg4MDgsNzYuMTQ2Mjc1NyBaIiBmaWxsPSIjRkZGRkZGIj4KDTwvcGF0aD4KICAgICAgICAgICAgPHBhdGggZD0iTTQyLjc1MzA5NTEsOTQuMDYzMDQ2NCBDNDAuODMzNDQxMSw5NC4wNjMwNDY0IDM5LjQyNTY5NDgsOTIuNTI3MzIzMiAzOS40MjU2OTQ4LDkwLjYwNzY2OTIgQzM5LjQyNTY5NDgsODkuNzExODMwNyAzOS44MDk2MjU2LDg4LjgxNTk5MjEgNDAuNDQ5NTEwMyw4OC4xNzYxMDc1IEw1My41MDMxNTc2LDc1LjEyMjQ2MDIgQzU0LjI3MTAxOTIsNzQuNDgyNTc1NSA1NS4yOTQ4MzQ2LDc0LjQ4MjU3NTUgNTYuMDYyNjk2Miw3NS4xMjI0NjAyIEw2Ni45NDA3MzU2LDg2LjAwMDQ5OTYgQzY3LjcwODU5NzIsODYuNjQwMzg0MiA2Ny43MDg1OTcyLDg3Ljc5MjE3NjcgNjYuOTQwNzM1Niw4OC41NjAwMzgzIEM2Ni42ODQ3ODE3LDg4LjgxNTk5MjEgNjYuNDI4ODI3OSw4OC45NDM5NjkxIDY2LjA0NDg5NzEsODkuMDcxOTQ2IEw0My41MjA5NTY3LDkzLjkzNTA2OTUgQzQzLjI2NTAwMjgsOTMuOTM1MDY5NSA0My4wMDkwNDksOTQuMDYzMDQ2NCA0Mi43NTMwOTUxLDk0LjA2MzA0NjQgTDQyLjc1MzA5NTEsOTQuMDYzMDQ2NCBaIE01NC42NTQ5NSw3Ny41NTQwMjE5IEw0Mi4xMTMyMTA0LDkwLjA5NTc2MTUgQzQxLjg1NzI1NjYsOTAuMzUxNzE1MyA0MS43MjkyNzk2LDkwLjczNTY0NjEgNDEuOTg1MjMzNSw5MS4xMTk1NzY5IEM0Mi4xMTMyMTA0LDkxLjUwMzUwNzcgNDIuNDk3MTQxMiw5MS42MzE0ODQ3IDQyLjg4MTA3Miw5MS41MDM1MDc3IEw2My45OTcyNjYxLDg2Ljg5NjMzODEgTDU0LjY1NDk1LDc3LjU1NDAyMTkgWiIgZmlsbD0iI0ZGNkMzNyI+Cg08L3BhdGg+CiAgICAgICAgICAgIDxwYXRoIGQ9Ik0xNTIuNTU3MzA0LDcuMDM4NzMxMzYgQzE0NC4zNjY3ODEsLTAuODk1ODM4NTM3IDEzMS4xODUxNTYsLTAuNjM5ODg0NjY5IDEyMy4yNTA1ODcsNy42Nzg2MTYwMyBDMTE1LjMxNjAxNywxNS45OTcxMTY3IDExNS41NzE5NywyOS4wNTA3NjQgMTIzLjg5MDQ3MSwzNi45ODUzMzM5IEMxMzAuNjczMjQ5LDQzLjUxMjE1NzUgMTQwLjkxMTQwMyw0NC42NjM5NDk5IDE0OC45NzM5NSwzOS44MDA4MjY0IEwxMzQuMzg0NTgsMjUuMjExNDU2IEwxNTIuNTU3MzA0LDcuMDM4NzMxMzYgWiIgZmlsbD0iI0ZGRkZGRiI+Cg08L3BhdGg+CiAgICAgICAgICAgIDxwYXRoIGQ9Ik0xMzguMjIzODg4LDQ0LjAyNDA2NTMgQzEyNi4wNjYwNzksNDQuMDI0MDY1MyAxMTYuMjExODU1LDM0LjE2OTg0MTMgMTE2LjIxMTg1NSwyMi4wMTIwMzI2IEMxMTYuMjExODU1LDkuODU0MjIzOTEgMTI2LjA2NjA3OSwtMS44MTg2NjE2MWUtMTQgMTM4LjIyMzg4OCwtMS44MTg2NjE2MWUtMTQgQzE0My44NTQ4NzMsLTEuODE4NjYxNjFlLTE0IDE0OS4zNTc4ODEsMi4xNzU2MDc4OCAxNTMuNDUzMTQzLDYuMTQyODkyODMgQzE1My43MDkwOTcsNi4zOTg4NDY2OSAxNTMuODM3MDc0LDYuNjU0ODAwNTYgMTUzLjgzNzA3NCw3LjAzODczMTM2IEMxNTMuODM3MDc0LDcuNDIyNjYyMTcgMTUzLjcwOTA5Nyw3LjY3ODYxNjAzIDE1My40NTMxNDMsNy45MzQ1Njk5IEwxMzYuMTc2MjU3LDI1LjIxMTQ1NiBMMTQ5Ljc0MTgxMiwzOC43NzcwMTEgQzE1MC4yNTM3MiwzOS4yODg5MTg3IDE1MC4yNTM3Miw0MC4wNTY3ODAzIDE0OS43NDE4MTIsNDAuNTY4Njg4IEMxNDkuNjEzODM1LDQwLjY5NjY2NSAxNDkuNjEzODM1LDQwLjY5NjY2NSAxNDkuNDg1ODU4LDQwLjgyNDY0MTkgQzE0Ni4xNTg0NTgsNDIuODcyMjcyOSAxNDIuMTkxMTczLDQ0LjAyNDA2NTMgMTM4LjIyMzg4OCw0NC4wMjQwNjUzIFogTTEzOC4yMjM4ODgsMi42ODc1MTU2MSBDMTI3LjQ3MzgyNSwyLjY4NzUxNTYxIDExOC43NzEzOTQsMTEuMzg5OTQ3MSAxMTguODk5MzcxLDIyLjE0MDAwOTYgQzExOC44OTkzNzEsMzIuODkwMDcyIDEyNy42MDE4MDIsNDEuNTkyNTAzNSAxMzguMzUxODY1LDQxLjQ2NDUyNjYgQzE0MS4yOTUzMzQsNDEuNDY0NTI2NiAxNDQuMjM4ODA0LDQwLjgyNDY0MTkgMTQ2LjkyNjMxOSwzOS40MTY4OTU2IEwxMzMuNDg4NzQxLDI2LjEwNzI5NDUgQzEzMy4yMzI3ODcsMjUuODUxMzQwNiAxMzMuMTA0ODEsMjUuNTk1Mzg2OCAxMzMuMTA0ODEsMjUuMjExNDU2IEMxMzMuMTA0ODEsMjQuODI3NTI1MiAxMzMuMjMyNzg3LDI0LjU3MTU3MTMgMTMzLjQ4ODc0MSwyNC4zMTU2MTc0IEwxNTAuNjM3NjUsNy4xNjY3MDgzIEMxNDcuMTgyMjczLDQuMjIzMjM4ODIgMTQyLjgzMTA1NywyLjY4NzUxNTYxIDEzOC4yMjM4ODgsMi42ODc1MTU2MSBMMTM4LjIyMzg4OCwyLjY4NzUxNTYxIFoiIGZpbGw9IiNGRjZDMzciPgoNPC9wYXRoPgogICAgICAgICAgICA8cGF0aCBkPSJNMTUyLjk0MTIzNSw3LjQyMjY2MjE3IEwxNTIuNjg1MjgxLDcuMTY2NzA4MyBMMTM0LjM4NDU4LDI1LjIxMTQ1NiBMMTQ4Ljg0NTk3MywzOS42NzI4NDk1IEMxNTAuMjUzNzIsMzguNzc3MDExIDE1MS42NjE0NjYsMzcuNzUzMTk1NSAxNTIuODEzMjU4LDM2LjYwMTQwMzEgQzE2MS4wMDM3ODIsMjguNTM4ODU2MyAxNjEuMDAzNzgyLDE1LjQ4NTIwOSAxNTIuOTQxMjM1LDcuNDIyNjYyMTcgTDE1Mi45NDEyMzUsNy40MjI2NjIxNyBaIiBmaWxsPSIjRkZGRkZGIj4KDTwvcGF0aD4KICAgICAgICAgICAgPHBhdGggZD0iTTE0OC45NzM5NSw0MS4wODA1OTU4IEMxNDguNTkwMDE5LDQxLjA4MDU5NTggMTQ4LjMzNDA2Niw0MC45NTI2MTg4IDE0OC4wNzgxMTIsNDAuNjk2NjY1IEwxMzMuNDg4NzQxLDI2LjEwNzI5NDUgQzEzMy4yMzI3ODcsMjUuODUxMzQwNiAxMzMuMTA0ODEsMjUuNTk1Mzg2OCAxMzMuMTA0ODEsMjUuMjExNDU2IEMxMzMuMTA0ODEsMjQuODI3NTI1MiAxMzMuMjMyNzg3LDI0LjU3MTU3MTMgMTMzLjQ4ODc0MSwyNC4zMTU2MTc0IEwxNTEuNjYxNDY2LDYuMTQyODkyODMgQzE1Mi4xNzMzNzQsNS42MzA5ODUwOSAxNTIuOTQxMjM1LDUuNjMwOTg1MDkgMTUzLjQ1MzE0Myw2LjE0Mjg5MjgzIEwxNTMuODM3MDc0LDYuMzk4ODQ2NjkgQzE2Mi40MTE1MjgsMTQuOTczMzAxMyAxNjIuNDExNTI4LDI4Ljc5NDgxMDEgMTUzLjk2NTA1MSwzNy40OTcyNDE2IEMxNTIuNjg1MjgxLDM4Ljc3NzAxMSAxNTEuMjc3NTM1LDM5LjkyODgwMzQgMTQ5Ljc0MTgxMiw0MC44MjQ2NDE5IEMxNDkuMzU3ODgxLDQwLjk1MjYxODggMTQ5LjEwMTkyNyw0MS4wODA1OTU4IDE0OC45NzM5NSw0MS4wODA1OTU4IEwxNDguOTczOTUsNDEuMDgwNTk1OCBaIE0xMzYuMTc2MjU3LDI1LjIxMTQ1NiBMMTQ5LjEwMTkyNywzOC4xMzcxMjYzIEMxNTAuMTI1NzQzLDM3LjQ5NzI0MTYgMTUxLjE0OTU1OCwzNi42MDE0MDMxIDE1MS45MTc0MiwzNS44MzM1NDE1IEMxNTkuMjEyMTA1LDI4LjUzODg1NjMgMTU5LjU5NjAzNiwxNi42MzcwMDE0IDE1Mi41NTczMDQsOC45NTgzODUzNyBMMTM2LjE3NjI1NywyNS4yMTE0NTYgWiIgZmlsbD0iI0ZGNkMzNyI+Cg08L3BhdGg+CiAgICAgICAgICAgIDxwYXRoIGQ9Ik0xMjYuMTk0MDU2LDM5LjI4ODkxODcgQzEyMy4xMjI2MSwzNi4yMTc0NzIzIDExOC4xMzE1MDksMzYuMjE3NDcyMyAxMTUuMDYwMDYzLDM5LjI4ODkxODcgTDY2LjgxMjc1ODcsODcuNTM2MjIyOCBMNzQuODc1MzA1NSw5NS41OTg3Njk2IEwxMjUuOTM4MTAyLDUwLjgwNjg0MjggQzEyOS4yNjU1MDIsNDcuOTkxMzUwMiAxMjkuNTIxNDU2LDQzLjAwMDI0OTggMTI2LjcwNTk2NCwzOS42NzI4NDk1IEMxMjYuNDUwMDEsMzkuNTQ0ODcyNiAxMjYuMzIyMDMzLDM5LjQxNjg5NTYgMTI2LjE5NDA1NiwzOS4yODg5MTg3IEwxMjYuMTk0MDU2LDM5LjI4ODkxODcgWiIgZmlsbD0iI0ZGRkZGRiI+Cg08L3BhdGg+CiAgICAgICAgICAgIDxwYXRoIGQ9Ik03NC43NDczMjg2LDk2Ljg3ODUzOSBDNzQuMzYzMzk3OCw5Ni44Nzg1MzkgNzQuMTA3NDQzOSw5Ni43NTA1NjIgNzMuODUxNDksOTYuNDk0NjA4MiBMNjUuNzg4OTQzMiw4OC40MzIwNjEzIEM2NS4yNzcwMzU1LDg3LjkyMDE1MzYgNjUuMjc3MDM1NSw4Ny4xNTIyOTIgNjUuNzg4OTQzMiw4Ni42NDAzODQyIEwxMTQuMDM2MjQ3LDM4LjM5MzA4MDIgQzExNy42MTk2MDEsMzQuODA5NzI2IDEyMy4zNzg1NjMsMzQuODA5NzI2IDEyNi45NjE5MTgsMzguMzkzMDgwMiBDMTMwLjU0NTI3Miw0MS45NzY0MzQzIDEzMC41NDUyNzIsNDcuNzM1Mzk2MyAxMjYuOTYxOTE4LDUxLjMxODc1MDUgQzEyNi44MzM5NDEsNTEuNDQ2NzI3NCAxMjYuNzA1OTY0LDUxLjU3NDcwNDQgMTI2LjU3Nzk4Nyw1MS43MDI2ODEzIEw3NS41MTUxOTAyLDk2LjQ5NDYwODIgQzc1LjM4NzIxMzMsOTYuNzUwNTYyIDc1LjEzMTI1OTQsOTYuODc4NTM5IDc0Ljc0NzMyODYsOTYuODc4NTM5IEw3NC43NDczMjg2LDk2Ljg3ODUzOSBaIE02OC42MDQ0MzU4LDg3LjUzNjIyMjggTDc0Ljg3NTMwNTUsOTMuODA3MDkyNSBMMTI1LjA0MjI2NCw0OS43ODMwMjczIEMxMjcuODU3NzU2LDQ3LjQ3OTQ0MjUgMTI4LjExMzcxLDQzLjI1NjIwMzcgMTI1LjgxMDEyNSw0MC40NDA3MTExIEMxMjMuNTA2NTQsMzcuNjI1MjE4NiAxMTkuMjgzMzAyLDM3LjM2OTI2NDcgMTE2LjQ2NzgwOSwzOS42NzI4NDk1IEMxMTYuMzM5ODMyLDM5LjgwMDgyNjQgMTE2LjIxMTg1NSwzOS45Mjg4MDM0IDExNS45NTU5MDEsNDAuMDU2NzgwMyBMNjguNjA0NDM1OCw4Ny41MzYyMjI4IFoiIGZpbGw9IiNGRjZDMzciPgoNPC9wYXRoPgogICAgICAgICAgICA8cGF0aCBkPSJNMjkuODI3NDI0OCwxNDIuNDM4MzI3IEMyOS4zMTU1MTcxLDE0Mi42OTQyODEgMjkuMDU5NTYzMiwxNDMuMjA2MTg5IDI5LjE4NzU0MDEsMTQzLjcxODA5NyBMMzEuMzYzMTQ4LDE1Mi45MzI0MzYgQzMxLjg3NTA1NTcsMTU0LjIxMjIwNSAzMS4xMDcxOTQxLDE1NS43NDc5MjkgMjkuNjk5NDQ3OSwxNTYuMTMxODU5IEMyOC42NzU2MzI0LDE1Ni41MTU3OSAyNy41MjM4NCwxNTYuMTMxODU5IDI2Ljg4Mzk1NTMsMTU1LjM2Mzk5OCBMMTIuODA2NDkyNiwxNDEuNDE0NTEyIEw1OC43NTAyMTE4LDk1LjQ3MDc5MjcgTDc0LjYxOTM1MTYsOTUuNzI2NzQ2NiBMODUuMzY5NDE0MSwxMDYuNDc2ODA5IEM4Mi44MDk4NzU0LDEwOC42NTI0MTcgNjcuMzI0NjY2NCwxMjMuNjI1NzE4IDI5LjgyNzQyNDgsMTQyLjQzODMyNyBMMjkuODI3NDI0OCwxNDIuNDM4MzI3IFoiIGZpbGw9IiNGRkZGRkYiPgoNPC9wYXRoPgogICAgICAgICAgICA8cGF0aCBkPSJNMjguODAzNjA5MywxNTcuNDExNjI5IEMyNy43Nzk3OTM4LDE1Ny40MTE2MjkgMjYuNzU1OTc4NCwxNTcuMDI3Njk4IDI2LjExNjA5MzcsMTU2LjI1OTgzNiBMMTIuMTY2NjA3OSwxNDIuMzEwMzUgQzExLjkxMDY1NCwxNDIuMDU0Mzk3IDExLjc4MjY3NzEsMTQxLjc5ODQ0MyAxMS43ODI2NzcxLDE0MS40MTQ1MTIgQzExLjc4MjY3NzEsMTQxLjAzMDU4MSAxMS45MTA2NTQsMTQwLjc3NDYyNyAxMi4xNjY2MDc5LDE0MC41MTg2NzMgTDU4LjExMDMyNzIsOTQuNTc0OTU0MSBDNTguMzY2MjgxLDk0LjMxOTAwMDMgNTguNzUwMjExOCw5NC4xOTEwMjMzIDU5LjAwNjE2NTcsOTQuMTkxMDIzMyBMNzQuODc1MzA1NSw5NC40NDY5NzcyIEM3NS4yNTkyMzYzLDk0LjQ0Njk3NzIgNzUuNTE1MTkwMiw5NC41NzQ5NTQxIDc1Ljc3MTE0NDEsOTQuODMwOTA4IEw4Ni41MjEyMDY1LDEwNS41ODA5NyBDODYuNzc3MTYwNCwxMDUuODM2OTI0IDg2LjkwNTEzNzMsMTA2LjIyMDg1NSA4Ni45MDUxMzczLDEwNi42MDQ3ODYgQzg2LjkwNTEzNzMsMTA2Ljk4ODcxNyA4Ni43NzcxNjA0LDEwNy4yNDQ2NzEgODYuMzkzMjI5NiwxMDcuNTAwNjI0IEw4NS40OTczOTEsMTA4LjI2ODQ4NiBDNzEuOTMxODM2LDEyMC4xNzAzNDEgNTMuNTAzMTU3NiwxMzIuMDcyMTk2IDMwLjU5NTI4NjQsMTQzLjQ2MjE0MyBMMzIuNzcwODk0MywxNTIuNTQ4NTA1IEMzMy4xNTQ4MjUxLDE1NC4yMTIyMDUgMzIuMzg2OTYzNSwxNTYuMDAzODgyIDMwLjg1MTI0MDMsMTU2Ljg5OTcyMSBDMzAuMDgzMzc4NywxNTcuMjgzNjUyIDI5LjQ0MzQ5NCwxNTcuNDExNjI5IDI4LjgwMzYwOTMsMTU3LjQxMTYyOSBaIE0xNC43MjYxNDY2LDE0MS40MTQ1MTIgTDI3LjkwNzc3MDgsMTU0LjQ2ODE1OSBDMjguMjkxNzAxNiwxNTUuMTA4MDQ0IDI5LjA1OTU2MzIsMTU1LjM2Mzk5OCAyOS42OTk0NDc5LDE1NC45ODAwNjcgQzMwLjMzOTMzMjUsMTU0LjU5NjEzNiAzMC41OTUyODY0LDE1My44MjgyNzUgMzAuMjExMzU1NiwxNTMuMTg4MzkgTDI4LjAzNTc0NzcsMTQzLjk3NDA1MSBDMjcuNzc5NzkzOCwxNDIuODIyMjU4IDI4LjI5MTcwMTYsMTQxLjc5ODQ0MyAyOS4zMTU1MTcxLDE0MS4yODY1MzUgQzUxLjk2NzQzNDMsMTI5Ljg5NjU4OCA3MC4yNjgxMzU5LDExOC4xMjI3MSA4My43MDU3MTQsMTA2LjQ3NjgwOSBMNzQuMjM1NDIwOCw5Ny4wMDY1MTU5IEw1OS41MTgwNzM0LDk2Ljc1MDU2MiBMMTQuNzI2MTQ2NiwxNDEuNDE0NTEyIFoiIGZpbGw9IiNGRjZDMzciPgoNPC9wYXRoPgogICAgICAgICAgICA8cGF0aCBkPSJNMS45Mjg0NTMyLDE1Mi40MjA1MjggTDEyLjkzNDQ2OTUsMTQxLjQxNDUxMiBMMjkuMzE1NTE3MSwxNTcuNzk1NTU5IEwzLjIwODIyMjU0LDE1Ni4wMDM4ODIgQzIuMDU2NDMwMTMsMTU1Ljg3NTkwNSAxLjI4ODU2ODUzLDE1NC44NTIwOSAxLjQxNjU0NTQ2LDE1My43MDAyOTggQzEuNDE2NTQ1NDYsMTUzLjE4ODM5IDEuNTQ0NTIyNCwxNTIuNjc2NDgyIDEuOTI4NDUzMiwxNTIuNDIwNTI4IEwxLjkyODQ1MzIsMTUyLjQyMDUyOCBaIiBmaWxsPSIjRkZGRkZGIj4KDTwvcGF0aD4KICAgICAgICAgICAgPHBhdGggZD0iTTI5LjMxNTUxNzEsMTU4Ljk0NzM1MiBMMy4wODAyNDU2LDE1Ny4xNTU2NzUgQzEuMTYwNTkxNTksMTU3LjAyNzY5OCAtMC4xMTkxNzc3NDUsMTU1LjM2Mzk5OCAwLjAwODc5OTE4ODQ1LDE1My40NDQzNDQgQzAuMTM2Nzc2MTIyLDE1Mi42NzY0ODIgMC4zOTI3Mjk5OSwxNTEuOTA4NjIxIDEuMDMyNjE0NjYsMTUxLjM5NjcxMyBMMTIuMDM4NjMxLDE0MC4zOTA2OTYgQzEyLjU1MDUzODcsMTM5Ljg3ODc4OSAxMy4zMTg0MDAzLDEzOS44Nzg3ODkgMTMuODMwMzA4LDE0MC4zOTA2OTYgTDMwLjIxMTM1NTYsMTU2Ljc3MTc0NCBDMzAuNTk1Mjg2NCwxNTcuMTU1Njc1IDMwLjcyMzI2MzMsMTU3LjY2NzU4MyAzMC40NjczMDk1LDE1OC4xNzk0OSBDMzAuMjExMzU1NiwxNTguNjkxMzk4IDI5LjgyNzQyNDgsMTU4Ljk0NzM1MiAyOS4zMTU1MTcxLDE1OC45NDczNTIgTDI5LjMxNTUxNzEsMTU4Ljk0NzM1MiBaIE0xMi45MzQ0Njk1LDE0My4yMDYxODkgTDIuODI0MjkxNzMsMTUzLjMxNjM2NyBDMi40NDAzNjA5MywxNTMuNTcyMzIxIDIuNDQwMzYwOTMsMTU0LjIxMjIwNSAyLjgyNDI5MTczLDE1NC40NjgxNTkgQzIuOTUyMjY4NjcsMTU0LjU5NjEzNiAzLjA4MDI0NTYsMTU0LjcyNDExMyAzLjMzNjE5OTQ3LDE1NC43MjQxMTMgTDI1Ljk4ODExNjgsMTU2LjI1OTgzNiBMMTIuOTM0NDY5NSwxNDMuMjA2MTg5IFoiIGZpbGw9IiNGRjZDMzciPgoNPC9wYXRoPgogICAgICAgICAgICA8cGF0aCBkPSJNNTQuMjcxMDE5MiwxMDEuMzU3NzMyIEM1My41MDMxNTc2LDEwMS4zNTc3MzIgNTIuOTkxMjQ5OCwxMDAuNzE3ODQ3IDUyLjk5MTI0OTgsMTAwLjA3Nzk2MiBDNTIuOTkxMjQ5OCw5OS42OTQwMzE1IDUzLjExOTIyNjgsOTkuNDM4MDc3NiA1My4zNzUxODA2LDk5LjE4MjEyMzggTDY1Ljc4ODk0MzIsODYuNzY4MzYxMiBDNjYuMzAwODUwOSw4Ni4yNTY0NTM0IDY3LjA2ODcxMjUsODYuMjU2NDUzNCA2Ny41ODA2MjAzLDg2Ljc2ODM2MTIgTDc1LjY0MzE2NzEsOTQuODMwOTA4IEM3Ni4wMjcwOTc5LDk1LjIxNDgzODggNzYuMTU1MDc0OSw5NS41OTg3Njk2IDc2LjAyNzA5NzksOTYuMTEwNjc3NCBDNzUuODk5MTIxLDk2LjQ5NDYwODIgNzUuNTE1MTkwMiw5Ni44Nzg1MzkgNzUuMDAzMjgyNSw5Ny4wMDY1MTU5IEw1NC41MjY5NzMsMTAxLjM1NzczMiBDNTQuMzk4OTk2MSwxMDEuMzU3NzMyIDU0LjI3MTAxOTIsMTAxLjM1NzczMiA1NC4yNzEwMTkyLDEwMS4zNTc3MzIgTDU0LjI3MTAxOTIsMTAxLjM1NzczMiBaIE02Ni42ODQ3ODE3LDg5LjQ1NTg3NjggTDU4LjIzODMwNDEsOTcuOTAyMzU0NCBMNzIuMDU5ODEzLDk0Ljk1ODg4NDkgTDY2LjY4NDc4MTcsODkuNDU1ODc2OCBaIiBmaWxsPSIjRkY2QzM3Ij4KDTwvcGF0aD4KICAgICAgICAgICAgPHBhdGggZD0iTTc0LjYxOTM1MTYsOTUuNzI2NzQ2NiBMNjAuNTQxODg4OSw5OC43OTgxOTMgQzU5LjUxODA3MzQsOTkuMDU0MTQ2OCA1OC40OTQyNTgsOTguNDE0MjYyMiA1OC4yMzgzMDQxLDk3LjM5MDQ0NjcgQzU4LjExMDMyNzIsOTYuNzUwNTYyIDU4LjIzODMwNDEsOTYuMTEwNjc3NCA1OC43NTAyMTE4LDk1LjU5ODc2OTYgTDY2LjU1NjgwNDgsODcuNzkyMTc2NyBMNzQuNjE5MzUxNiw5NS43MjY3NDY2IFoiIGZpbGw9IiNGRkZGRkYiPgoNPC9wYXRoPgogICAgICAgICAgICA8cGF0aCBkPSJNNjAuMjg1OTM1MSwxMDAuMDc3OTYyIEM1OC40OTQyNTgsMTAwLjA3Nzk2MiA1Ny4wODY1MTE3LDk4LjY3MDIxNiA1Ny4wODY1MTE3LDk2Ljg3ODUzOSBDNTcuMDg2NTExNyw5NS45ODI3MDA0IDU3LjQ3MDQ0MjUsOTUuMjE0ODM4OCA1Ny45ODIzNTAyLDk0LjU3NDk1NDEgTDY1Ljc4ODk0MzIsODYuNzY4MzYxMiBDNjYuMzAwODUwOSw4Ni4yNTY0NTM0IDY3LjA2ODcxMjUsODYuMjU2NDUzNCA2Ny41ODA2MjAzLDg2Ljc2ODM2MTIgTDc1LjY0MzE2NzEsOTQuODMwOTA4IEM3Ni4wMjcwOTc5LDk1LjIxNDgzODggNzYuMTU1MDc0OSw5NS41OTg3Njk2IDc2LjAyNzA5NzksOTYuMTEwNjc3NCBDNzUuODk5MTIxLDk2LjQ5NDYwODIgNzUuNTE1MTkwMiw5Ni44Nzg1MzkgNzUuMDAzMjgyNSw5Ny4wMDY1MTU5IEw2MC45MjU4MTk3LDEwMC4wNzc5NjIgQzYwLjY2OTg2NTksMTAwLjA3Nzk2MiA2MC40MTM5MTIsMTAwLjA3Nzk2MiA2MC4yODU5MzUxLDEwMC4wNzc5NjIgTDYwLjI4NTkzNTEsMTAwLjA3Nzk2MiBaIE02Ni42ODQ3ODE3LDg5LjQ1NTg3NjggTDU5Ljc3NDAyNzMsOTYuMzY2NjMxMiBDNTkuNTE4MDczNCw5Ni42MjI1ODUxIDU5LjUxODA3MzQsOTYuODc4NTM5IDU5LjY0NjA1MDQsOTcuMTM0NDkyOCBDNTkuNzc0MDI3Myw5Ny4zOTA0NDY3IDYwLjAyOTk4MTIsOTcuNTE4NDIzNiA2MC40MTM5MTIsOTcuNTE4NDIzNiBMNzIuMTg3Nzg5OSw5NC45NTg4ODQ5IEw2Ni42ODQ3ODE3LDg5LjQ1NTg3NjggWiIgZmlsbD0iI0ZGNkMzNyI+Cg08L3BhdGg+CiAgICAgICAgICAgIDxwYXRoIGQ9Ik0xNTMuMDY5MjEyLDE5LjcwODQ0NzggQzE1Mi44MTMyNTgsMTguOTQwNTg2MiAxNTEuOTE3NDIsMTguNTU2NjU1NCAxNTEuMTQ5NTU4LDE4LjgxMjYwOTMgQzE1MC4zODE2OTcsMTkuMDY4NTYzMiAxNDkuOTk3NzY2LDE5Ljk2NDQwMTcgMTUwLjI1MzcyLDIwLjczMjI2MzMgQzE1MC4yNTM3MiwyMC44NjAyNDAyIDE1MC4zODE2OTcsMjAuOTg4MjE3MiAxNTAuMzgxNjk3LDIxLjExNjE5NDEgQzE1MS4xNDk1NTgsMjIuNjUxOTE3MyAxNTAuODkzNjA0LDI0LjU3MTU3MTMgMTQ5Ljg2OTc4OSwyNS45NzkzMTc2IEMxNDkuMzU3ODgxLDI2LjYxOTIwMjMgMTQ5LjQ4NTg1OCwyNy41MTUwNDA4IDE0OS45OTc3NjYsMjguMDI2OTQ4NSBDMTUwLjYzNzY1LDI4LjUzODg1NjMgMTUxLjUzMzQ4OSwyOC40MTA4NzkzIDE1Mi4wNDUzOTcsMjcuNzcwOTk0NyBDMTUzLjk2NTA1MSwyNS4zMzk0MzI5IDE1NC4zNDg5ODEsMjIuMjY3OTg2NSAxNTMuMDY5MjEyLDE5LjcwODQ0NzggTDE1My4wNjkyMTIsMTkuNzA4NDQ3OCBaIiBmaWxsPSIjRkY2QzM3Ij4KDTwvcGF0aD4KICAgICAgICA8L2c+CiAgICA8L2c+Cjwvc3ZnPg==;verticalAlign=top;labelPosition=center;verticalLabelPosition=bottom;align=center;" vertex="1" parent="1">
          <mxGeometry x="800" y="470" width="60" height="60" as="geometry" />
        </mxCell>
        <mxCell id="CPhPs6YMF01N5RDLmhh4-8" value="" style="endArrow=classic;startArrow=classic;html=1;rounded=0;" edge="1" parent="1">
          <mxGeometry width="50" height="50" relative="1" as="geometry">
            <mxPoint x="830" y="620" as="sourcePoint" />
            <mxPoint x="830" y="560" as="targetPoint" />
          </mxGeometry>
        </mxCell>
      </root>
    </mxGraphModel>
  </diagram>
</mxfile>
